<svg width="32" height="29" viewBox="0 0 32 29" fill="none" xmlns="http://www.w3.org/2000/svg">
<rect width="32" height="29" fill="#E5E5E5"/>
<g id="tablet 768_index" clip-path="url(#clip0_188_673)">
<rect width="768" height="2976" transform="translate(-695 -27)" fill="white"/>
<g id="Header">
<path id="Rectangle 25" d="M73.0001 -27H-695V47H73.0001V-27Z" fill="#222222"/>
</g>
<g id="Button copy">
<path id="Forma 1" d="M26.1998 29C25.5521 28.9738 24.9404 28.6948 24.4961 28.2227C24.0518 27.7506 23.8103 27.1232 23.8234 26.475C23.8365 25.8269 24.1032 25.2097 24.5662 24.7559C25.0292 24.3022 25.6516 24.048 26.2999 24.048C26.9482 24.048 27.5706 24.3022 28.0336 24.7559C28.4966 25.2097 28.7633 25.8269 28.7764 26.475C28.7895 27.1232 28.5479 27.7506 28.1036 28.2227C27.6593 28.6948 27.0477 28.9738 26.3999 29H26.1998ZM6.75183 26.32C6.75183 25.79 6.90901 25.2718 7.20349 24.8311C7.49797 24.3904 7.91654 24.0469 8.40625 23.844C8.89596 23.6412 9.43484 23.5881 9.95471 23.6915C10.4746 23.7949 10.9521 24.0502 11.3269 24.425C11.7017 24.7998 11.957 25.2773 12.0604 25.7972C12.1638 26.317 12.1107 26.8559 11.9078 27.3456C11.705 27.8353 11.3615 28.2539 10.9208 28.5483C10.4801 28.8428 9.96194 29 9.43188 29C9.07977 29.0003 8.73102 28.9311 8.40564 28.7966C8.08026 28.662 7.7846 28.4646 7.53552 28.2158C7.28645 27.9669 7.08891 27.6713 6.9541 27.3461C6.81929 27.0208 6.74988 26.6721 6.74988 26.32H6.75183ZM10.5519 20.686C10.2924 20.6868 10.0398 20.6024 9.83301 20.4457C9.62617 20.2891 9.47648 20.0689 9.40686 19.819L4.57385 2.36401H1.18091C0.867422 2.36401 0.566761 2.23947 0.345093 2.01781C0.123425 1.79614 -0.00109863 1.49549 -0.00109863 1.18201C-0.00109863 0.868519 0.123425 0.567873 0.345093 0.346205C0.566761 0.124537 0.867422 5.81268e-06 1.18091 5.81268e-06H5.46191C5.7214 -0.00080736 5.97394 0.0837201 6.18066 0.240568C6.38739 0.397416 6.53674 0.617884 6.60583 0.868006L11.4388 18.323H24.6168L28.9999 8.27501H14.3999C14.2417 8.27961 14.0843 8.25242 13.9368 8.19507C13.7893 8.13771 13.6548 8.05134 13.5413 7.94108C13.4277 7.83082 13.3375 7.69891 13.2759 7.55315C13.2143 7.40739 13.1825 7.25075 13.1825 7.0925C13.1825 6.93426 13.2143 6.77762 13.2759 6.63186C13.3375 6.4861 13.4277 6.35419 13.5413 6.24393C13.6548 6.13367 13.7893 6.0473 13.9368 5.98994C14.0843 5.93259 14.2417 5.90541 14.3999 5.91001H30.8129C31.0086 5.90996 31.2011 5.95866 31.3733 6.05172C31.5454 6.14478 31.6917 6.27926 31.7988 6.44301C31.9067 6.60729 31.9723 6.79569 31.9897 6.99145C32.0072 7.18721 31.976 7.38424 31.8989 7.565L26.4939 19.977C26.4015 20.1876 26.2499 20.3668 26.0574 20.4927C25.8649 20.6186 25.6399 20.6858 25.4099 20.686H10.5519Z" fill="#E8E8E8"/>
<path id="Ellipse 2" d="M31.4999 11C36.7466 11 40.9999 6.74671 40.9999 1.5C40.9999 -3.74671 36.7466 -8 31.4999 -8C26.2532 -8 21.9999 -3.74671 21.9999 1.5C21.9999 6.74671 26.2532 11 31.4999 11Z" fill="#F16D7F"/>
<path id="5" d="M30.8119 -0.352C31.2599 -0.448 31.6719 -0.496 32.0479 -0.496C32.4959 -0.496 32.8919 -0.43 33.2359 -0.298C33.5799 -0.166 33.8659 0.0159998 34.0939 0.248C34.3259 0.48 34.4999 0.754 34.6159 1.07C34.7359 1.386 34.7959 1.73 34.7959 2.102C34.7959 2.558 34.7159 2.97 34.5559 3.338C34.3999 3.706 34.1819 4.022 33.9019 4.286C33.6259 4.546 33.2999 4.746 32.9239 4.886C32.5479 5.026 32.1419 5.096 31.7059 5.096C31.4539 5.096 31.2119 5.07 30.9799 5.018C30.7479 4.97 30.5299 4.904 30.3259 4.82C30.1259 4.736 29.9399 4.64 29.7679 4.532C29.5959 4.424 29.4439 4.31 29.3119 4.19L29.6419 3.734C29.7139 3.63 29.8079 3.578 29.9239 3.578C30.0039 3.578 30.0939 3.61 30.1939 3.674C30.2939 3.734 30.4159 3.802 30.5599 3.878C30.7039 3.954 30.8719 4.024 31.0639 4.088C31.2599 4.148 31.4919 4.178 31.7599 4.178C32.0599 4.178 32.3299 4.13 32.5699 4.034C32.8099 3.938 33.0159 3.802 33.1879 3.626C33.3599 3.446 33.4919 3.232 33.5839 2.984C33.6759 2.736 33.7219 2.458 33.7219 2.15C33.7219 1.882 33.6819 1.64 33.6019 1.424C33.5259 1.208 33.4079 1.024 33.2479 0.872C33.0919 0.72 32.8959 0.602 32.6599 0.518C32.4239 0.434 32.1479 0.392 31.8319 0.392C31.6159 0.392 31.3899 0.41 31.1539 0.446C30.9219 0.482 30.6839 0.54 30.4399 0.62L29.7679 0.422L30.4579 -3.598H34.5319V-3.13C34.5319 -2.978 34.4839 -2.852 34.3879 -2.752C34.2959 -2.656 34.1359 -2.608 33.9079 -2.608H31.2079L30.8119 -0.352Z" fill="white"/>
</g>
</g>
<defs>
<clipPath id="clip0_188_673">
<rect width="768" height="2976" fill="white" transform="translate(-695 -27)"/>
</clipPath>
</defs>
</svg>
